<svg width="17" height="16" viewBox="0 0 17 16" fill="none" xmlns="http://www.w3.org/2000/svg">
<mask id="path-1-inside-1_2013_224711" fill="white">
<path d="M7.16667 11.9997C7.34348 11.9997 7.51305 11.9294 7.63807 11.8044C7.7631 11.6794 7.83333 11.5098 7.83333 11.333L7.83333 7.33301C7.83333 7.1562 7.7631 6.98663 7.63807 6.8616C7.51305 6.73658 7.34348 6.66634 7.16667 6.66634C6.98986 6.66634 6.82029 6.73658 6.69526 6.8616C6.57024 6.98663 6.5 7.1562 6.5 7.33301L6.5 11.333C6.5 11.5098 6.57024 11.6794 6.69526 11.8044C6.82029 11.9294 6.98986 11.9997 7.16667 11.9997ZM13.8333 3.99967H11.1667V3.33301C11.1667 2.80257 10.956 2.29387 10.5809 1.91879C10.2058 1.54372 9.6971 1.33301 9.16667 1.33301L7.83333 1.33301C7.3029 1.33301 6.79419 1.54372 6.41912 1.91879C6.04405 2.29387 5.83333 2.80257 5.83333 3.33301V3.99967H3.16667C2.98986 3.99967 2.82029 4.06991 2.69526 4.19494C2.57024 4.31996 2.5 4.48953 2.5 4.66634C2.5 4.84315 2.57024 5.01272 2.69526 5.13775C2.82029 5.26277 2.98986 5.33301 3.16667 5.33301H3.83333L3.83333 12.6663C3.83333 13.1968 4.04405 13.7055 4.41912 14.0806C4.79419 14.4556 5.3029 14.6663 5.83333 14.6663H11.1667C11.6971 14.6663 12.2058 14.4556 12.5809 14.0806C12.956 13.7055 13.1667 13.1968 13.1667 12.6663V5.33301H13.8333C14.0101 5.33301 14.1797 5.26277 14.3047 5.13775C14.4298 5.01272 14.5 4.84315 14.5 4.66634C14.5 4.48953 14.4298 4.31996 14.3047 4.19494C14.1797 4.06991 14.0101 3.99967 13.8333 3.99967ZM7.16667 3.33301C7.16667 3.1562 7.2369 2.98663 7.36193 2.8616C7.48695 2.73658 7.65652 2.66634 7.83333 2.66634L9.16667 2.66634C9.34348 2.66634 9.51305 2.73658 9.63807 2.8616C9.7631 2.98663 9.83333 3.1562 9.83333 3.33301V3.99967H7.16667V3.33301ZM11.8333 12.6663C11.8333 12.8432 11.7631 13.0127 11.6381 13.1377C11.513 13.2628 11.3435 13.333 11.1667 13.333H5.83333C5.65652 13.333 5.48695 13.2628 5.36193 13.1377C5.2369 13.0127 5.16667 12.8432 5.16667 12.6663V5.33301H11.8333V12.6663ZM9.83333 11.9997C10.0101 11.9997 10.1797 11.9294 10.3047 11.8044C10.4298 11.6794 10.5 11.5098 10.5 11.333V7.33301C10.5 7.1562 10.4298 6.98663 10.3047 6.8616C10.1797 6.73658 10.0101 6.66634 9.83333 6.66634C9.65652 6.66634 9.48695 6.73658 9.36193 6.8616C9.23691 6.98663 9.16667 7.1562 9.16667 7.33301V11.333C9.16667 11.5098 9.23691 11.6794 9.36193 11.8044C9.48695 11.9294 9.65652 11.9997 9.83333 11.9997Z"/>
</mask>
<path d="M7.16667 11.9997C7.34348 11.9997 7.51305 11.9294 7.63807 11.8044C7.7631 11.6794 7.83333 11.5098 7.83333 11.333L7.83333 7.33301C7.83333 7.1562 7.7631 6.98663 7.63807 6.8616C7.51305 6.73658 7.34348 6.66634 7.16667 6.66634C6.98986 6.66634 6.82029 6.73658 6.69526 6.8616C6.57024 6.98663 6.5 7.1562 6.5 7.33301L6.5 11.333C6.5 11.5098 6.57024 11.6794 6.69526 11.8044C6.82029 11.9294 6.98986 11.9997 7.16667 11.9997ZM13.8333 3.99967H11.1667V3.33301C11.1667 2.80257 10.956 2.29387 10.5809 1.91879C10.2058 1.54372 9.6971 1.33301 9.16667 1.33301L7.83333 1.33301C7.3029 1.33301 6.79419 1.54372 6.41912 1.91879C6.04405 2.29387 5.83333 2.80257 5.83333 3.33301V3.99967H3.16667C2.98986 3.99967 2.82029 4.06991 2.69526 4.19494C2.57024 4.31996 2.5 4.48953 2.5 4.66634C2.5 4.84315 2.57024 5.01272 2.69526 5.13775C2.82029 5.26277 2.98986 5.33301 3.16667 5.33301H3.83333L3.83333 12.6663C3.83333 13.1968 4.04405 13.7055 4.41912 14.0806C4.79419 14.4556 5.3029 14.6663 5.83333 14.6663H11.1667C11.6971 14.6663 12.2058 14.4556 12.5809 14.0806C12.956 13.7055 13.1667 13.1968 13.1667 12.6663V5.33301H13.8333C14.0101 5.33301 14.1797 5.26277 14.3047 5.13775C14.4298 5.01272 14.5 4.84315 14.5 4.66634C14.5 4.48953 14.4298 4.31996 14.3047 4.19494C14.1797 4.06991 14.0101 3.99967 13.8333 3.99967ZM7.16667 3.33301C7.16667 3.1562 7.2369 2.98663 7.36193 2.8616C7.48695 2.73658 7.65652 2.66634 7.83333 2.66634L9.16667 2.66634C9.34348 2.66634 9.51305 2.73658 9.63807 2.8616C9.7631 2.98663 9.83333 3.1562 9.83333 3.33301V3.99967H7.16667V3.33301ZM11.8333 12.6663C11.8333 12.8432 11.7631 13.0127 11.6381 13.1377C11.513 13.2628 11.3435 13.333 11.1667 13.333H5.83333C5.65652 13.333 5.48695 13.2628 5.36193 13.1377C5.2369 13.0127 5.16667 12.8432 5.16667 12.6663V5.33301H11.8333V12.6663ZM9.83333 11.9997C10.0101 11.9997 10.1797 11.9294 10.3047 11.8044C10.4298 11.6794 10.5 11.5098 10.5 11.333V7.33301C10.5 7.1562 10.4298 6.98663 10.3047 6.8616C10.1797 6.73658 10.0101 6.66634 9.83333 6.66634C9.65652 6.66634 9.48695 6.73658 9.36193 6.8616C9.23691 6.98663 9.16667 7.1562 9.16667 7.33301V11.333C9.16667 11.5098 9.23691 11.6794 9.36193 11.8044C9.48695 11.9294 9.65652 11.9997 9.83333 11.9997Z" fill="inherit"/>
<path d="M11.1667 3.99967H9.16667V5.99967L11.1667 5.99967V3.99967ZM7.83333 1.33301V-0.666992V1.33301ZM5.83333 3.99967V5.99967H7.83333V3.99967L5.83333 3.99967ZM2.5 4.66634H0.5H2.5ZM3.83333 5.33301H5.83333V3.33301H3.83333V5.33301ZM5.83333 14.6663V16.6663V14.6663ZM11.1667 14.6663V16.6663V14.6663ZM13.1667 12.6663H15.1667H13.1667ZM13.1667 5.33301V3.33301L11.1667 3.33301V5.33301H13.1667ZM7.83333 2.66634V4.66634V2.66634ZM9.83333 3.99967V5.99967L11.8333 5.99967V3.99967H9.83333ZM7.16667 3.99967L5.16667 3.99967V5.99967H7.16667V3.99967ZM5.16667 5.33301V3.33301H3.16667V5.33301H5.16667ZM11.8333 5.33301H13.8333V3.33301L11.8333 3.33301V5.33301ZM7.16667 13.9997C7.87391 13.9997 8.55219 13.7187 9.05228 13.2186L6.22386 10.3902C6.47391 10.1401 6.81305 9.99967 7.16667 9.99967V13.9997ZM9.05228 13.2186C9.55238 12.7185 9.83333 12.0403 9.83333 11.333H5.83333C5.83333 10.9794 5.97381 10.6402 6.22386 10.3902L9.05228 13.2186ZM9.83333 11.333V7.33301H5.83333V11.333H9.83333ZM9.83333 7.33301C9.83333 6.62576 9.55238 5.94749 9.05228 5.44739L6.22386 8.27582C5.97381 8.02577 5.83333 7.68663 5.83333 7.33301H9.83333ZM9.05228 5.44739C8.55219 4.94729 7.87391 4.66634 7.16667 4.66634V8.66634C6.81304 8.66634 6.47391 8.52586 6.22386 8.27582L9.05228 5.44739ZM7.16667 4.66634C6.45942 4.66634 5.78114 4.94729 5.28105 5.44739L8.10948 8.27582C7.85943 8.52586 7.52029 8.66634 7.16667 8.66634V4.66634ZM5.28105 5.44739C4.78095 5.94749 4.5 6.62576 4.5 7.33301H8.5C8.5 7.68663 8.35952 8.02577 8.10948 8.27582L5.28105 5.44739ZM4.5 7.33301V11.333H8.5V7.33301H4.5ZM4.5 11.333C4.5 12.0403 4.78095 12.7185 5.28105 13.2186L8.10948 10.3902C8.35952 10.6402 8.5 10.9794 8.5 11.333H4.5ZM5.28105 13.2186C5.78115 13.7187 6.45943 13.9997 7.16667 13.9997V9.99967C7.52029 9.99967 7.85943 10.1401 8.10948 10.3902L5.28105 13.2186ZM13.8333 1.99967L11.1667 1.99967V5.99967H13.8333V1.99967ZM13.1667 3.99967V3.33301L9.16667 3.33301V3.99967H13.1667ZM13.1667 3.33301C13.1667 2.27214 12.7452 1.25473 11.9951 0.504581L9.16667 3.33301L13.1667 3.33301ZM11.9951 0.504581C11.2449 -0.245565 10.2275 -0.666992 9.16667 -0.666992V3.33301L11.9951 0.504581ZM9.16667 -0.666992H7.83333V3.33301L9.16667 3.33301V-0.666992ZM7.83333 -0.666992C6.77247 -0.666992 5.75505 -0.245565 5.00491 0.504581L7.83333 3.33301H7.83333V-0.666992ZM5.00491 0.504581C4.25476 1.25473 3.83333 2.27214 3.83333 3.33301H7.83333H7.83333L5.00491 0.504581ZM3.83333 3.33301V3.99967L7.83333 3.99967V3.33301H3.83333ZM5.83333 1.99967L3.16667 1.99967V5.99967H5.83333V1.99967ZM3.16667 1.99967C2.45942 1.99967 1.78114 2.28063 1.28105 2.78072L4.10948 5.60915C3.85943 5.8592 3.52029 5.99967 3.16667 5.99967V1.99967ZM1.28105 2.78072C0.780952 3.28082 0.5 3.9591 0.5 4.66634H4.5C4.5 5.01996 4.35952 5.3591 4.10948 5.60915L1.28105 2.78072ZM0.5 4.66634C0.5 5.37359 0.780952 6.05186 1.28105 6.55196L4.10948 3.72353C4.35952 3.97358 4.5 4.31272 4.5 4.66634H0.5ZM1.28105 6.55196C1.78114 7.05206 2.45942 7.33301 3.16667 7.33301L3.16667 3.33301C3.52029 3.33301 3.85943 3.47348 4.10948 3.72353L1.28105 6.55196ZM3.16667 7.33301H3.83333L3.83333 3.33301H3.16667L3.16667 7.33301ZM1.83333 5.33301L1.83333 12.6663H5.83333V5.33301H1.83333ZM1.83333 12.6663C1.83333 13.7272 2.25476 14.7446 3.00491 15.4948L5.83333 12.6663H1.83333ZM3.00491 15.4948C3.75505 16.2449 4.77247 16.6663 5.83333 16.6663L5.83333 12.6663L3.00491 15.4948ZM5.83333 16.6663H11.1667V12.6663H5.83333L5.83333 16.6663ZM11.1667 16.6663C12.2275 16.6663 13.2449 16.2449 13.9951 15.4948L11.1667 12.6663V16.6663ZM13.9951 15.4948C14.7452 14.7446 15.1667 13.7272 15.1667 12.6663H11.1667L13.9951 15.4948ZM15.1667 12.6663V5.33301L11.1667 5.33301V12.6663H15.1667ZM13.1667 7.33301H13.8333V3.33301H13.1667V7.33301ZM13.8333 7.33301C14.5406 7.33301 15.2189 7.05206 15.719 6.55196L12.8905 3.72353C13.1406 3.47348 13.4797 3.33301 13.8333 3.33301V7.33301ZM15.719 6.55196C16.2191 6.05186 16.5 5.37358 16.5 4.66634L12.5 4.66634C12.5 4.31272 12.6405 3.97358 12.8905 3.72353L15.719 6.55196ZM16.5 4.66634C16.5 3.9591 16.2191 3.28082 15.719 2.78072L12.8905 5.60915C12.6405 5.3591 12.5 5.01996 12.5 4.66634L16.5 4.66634ZM15.719 2.78072C15.2189 2.28063 14.5406 1.99967 13.8333 1.99967V5.99967C13.4797 5.99967 13.1406 5.8592 12.8905 5.60915L15.719 2.78072ZM9.16667 3.33301C9.16667 3.68663 9.02619 4.02577 8.77614 4.27582L5.94772 1.44739C5.44762 1.94749 5.16667 2.62576 5.16667 3.33301L9.16667 3.33301ZM8.77614 4.27582C8.52609 4.52586 8.18696 4.66634 7.83333 4.66634V0.666341C7.12609 0.666341 6.44781 0.947294 5.94772 1.44739L8.77614 4.27582ZM7.83333 4.66634H9.16667V0.666341H7.83333V4.66634ZM9.16667 4.66634C8.81304 4.66634 8.47391 4.52586 8.22386 4.27582L11.0523 1.44739C10.5522 0.947294 9.87391 0.666341 9.16667 0.666341V4.66634ZM8.22386 4.27582C7.97381 4.02577 7.83333 3.68663 7.83333 3.33301L11.8333 3.33301C11.8333 2.62576 11.5524 1.94749 11.0523 1.44739L8.22386 4.27582ZM7.83333 3.33301V3.99967H11.8333V3.33301L7.83333 3.33301ZM9.83333 1.99967L7.16667 1.99967V5.99967H9.83333V1.99967ZM9.16667 3.99967V3.33301L5.16667 3.33301V3.99967L9.16667 3.99967ZM9.83333 12.6663C9.83333 12.3127 9.97381 11.9736 10.2239 11.7235L13.0523 14.552C13.5524 14.0519 13.8333 13.3736 13.8333 12.6663H9.83333ZM10.2239 11.7235C10.4739 11.4735 10.8131 11.333 11.1667 11.333V15.333C11.8739 15.333 12.5522 15.0521 13.0523 14.552L10.2239 11.7235ZM11.1667 11.333H5.83333L5.83333 15.333H11.1667V11.333ZM5.83333 11.333C6.18695 11.333 6.52609 11.4735 6.77614 11.7235L3.94772 14.552C4.44781 15.0521 5.12609 15.333 5.83333 15.333L5.83333 11.333ZM6.77614 11.7235C7.02619 11.9736 7.16667 12.3127 7.16667 12.6663H3.16667C3.16667 13.3736 3.44762 14.0519 3.94772 14.552L6.77614 11.7235ZM7.16667 12.6663L7.16667 5.33301H3.16667L3.16667 12.6663H7.16667ZM5.16667 7.33301L11.8333 7.33301V3.33301L5.16667 3.33301V7.33301ZM9.83333 5.33301V12.6663H13.8333V5.33301H9.83333ZM9.83333 13.9997C10.5406 13.9997 11.2189 13.7187 11.719 13.2186L8.89052 10.3902C9.14058 10.1401 9.47971 9.99967 9.83333 9.99967V13.9997ZM11.719 13.2186C12.219 12.7185 12.5 12.0403 12.5 11.333H8.5C8.5 10.9794 8.64048 10.6402 8.89052 10.3902L11.719 13.2186ZM12.5 11.333V7.33301L8.5 7.33301V11.333H12.5ZM12.5 7.33301C12.5 6.62576 12.219 5.94749 11.719 5.44739L8.89052 8.27582C8.64048 8.02577 8.5 7.68663 8.5 7.33301L12.5 7.33301ZM11.719 5.44739C11.2189 4.94729 10.5406 4.66634 9.83333 4.66634V8.66634C9.47971 8.66634 9.14057 8.52586 8.89052 8.27582L11.719 5.44739ZM9.83333 4.66634C9.12609 4.66634 8.44781 4.94729 7.94772 5.44739L10.7761 8.27582C10.5261 8.52586 10.187 8.66634 9.83333 8.66634V4.66634ZM7.94772 5.44739C7.44762 5.94749 7.16667 6.62576 7.16667 7.33301L11.1667 7.33301C11.1667 7.68663 11.0262 8.02577 10.7761 8.27582L7.94772 5.44739ZM7.16667 7.33301L7.16667 11.333H11.1667V7.33301L7.16667 7.33301ZM7.16667 11.333C7.16667 12.0403 7.44762 12.7185 7.94772 13.2186L10.7761 10.3902C11.0262 10.6402 11.1667 10.9794 11.1667 11.333H7.16667ZM7.94772 13.2186C8.44781 13.7187 9.12609 13.9997 9.83333 13.9997V9.99967C10.187 9.99967 10.5261 10.1401 10.7761 10.3902L7.94772 13.2186Z" fill="inherit" mask="url(#path-1-inside-1_2013_224711)"/>
</svg>
