<svg width="24" height="25" viewBox="0 0 24 25" fill="none" xmlns="http://www.w3.org/2000/svg">
<path d="M10.9402 6.58019C11.2909 6.52642 11.6453 6.49967 12.0002 6.50019C15.1802 6.50019 18.1702 8.79018 19.9102 12.5002C19.6441 13.0648 19.3435 13.6125 19.0102 14.1402C18.9044 14.304 18.8487 14.4952 18.8502 14.6902C18.8524 14.9084 18.926 15.1199 19.0596 15.2925C19.1933 15.465 19.3798 15.589 19.5905 15.6457C19.8013 15.7024 20.0248 15.6885 20.227 15.6063C20.4291 15.524 20.5988 15.3779 20.7102 15.1902C21.1761 14.4581 21.5808 13.6888 21.9202 12.8902C21.9738 12.7654 22.0015 12.631 22.0015 12.4952C22.0015 12.3594 21.9738 12.225 21.9202 12.1002C19.9002 7.41019 16.1002 4.50019 12.0002 4.50019C11.5309 4.49782 11.0623 4.53798 10.6002 4.62019C10.4689 4.64251 10.3432 4.69048 10.2304 4.76136C10.1177 4.83224 10.0199 4.92464 9.94287 5.03329C9.8658 5.14193 9.81088 5.26469 9.78125 5.39456C9.75162 5.52443 9.74786 5.65886 9.77018 5.79019C9.79251 5.92151 9.84048 6.04715 9.91136 6.15993C9.98224 6.27271 10.0746 6.37043 10.1833 6.4475C10.2919 6.52457 10.4147 6.57949 10.5446 6.60912C10.6744 6.63875 10.8089 6.64251 10.9402 6.62019V6.58019ZM3.71019 2.79019C3.61695 2.69695 3.50626 2.62299 3.38443 2.57253C3.26261 2.52207 3.13204 2.49609 3.00019 2.49609C2.86833 2.49609 2.73776 2.52207 2.61594 2.57253C2.49411 2.62299 2.38342 2.69695 2.29019 2.79019C2.10188 2.97849 1.99609 3.23388 1.99609 3.50019C1.99609 3.76649 2.10188 4.02188 2.29019 4.21019L5.39019 7.30019C3.97576 8.66171 2.85004 10.2942 2.08019 12.1002C2.02512 12.2264 1.9967 12.3625 1.9967 12.5002C1.9967 12.6378 2.02512 12.774 2.08019 12.9002C4.10019 17.5902 7.90019 20.5002 12.0002 20.5002C13.7973 20.4878 15.552 19.9527 17.0502 18.9602L20.2902 22.2102C20.3831 22.3039 20.4937 22.3783 20.6156 22.4291C20.7375 22.4798 20.8682 22.506 21.0002 22.506C21.1322 22.506 21.2629 22.4798 21.3848 22.4291C21.5066 22.3783 21.6172 22.3039 21.7102 22.2102C21.8039 22.1172 21.8783 22.0066 21.9291 21.8848C21.9798 21.7629 22.006 21.6322 22.006 21.5002C22.006 21.3682 21.9798 21.2375 21.9291 21.1156C21.8783 20.9937 21.8039 20.8831 21.7102 20.7902L3.71019 2.79019ZM10.0702 11.9802L12.5202 14.4302C12.3512 14.4787 12.176 14.5022 12.0002 14.5002C11.4698 14.5002 10.961 14.2895 10.586 13.9144C10.2109 13.5393 10.0002 13.0306 10.0002 12.5002C9.99814 12.3244 10.0217 12.1492 10.0702 11.9802ZM12.0002 18.5002C8.82018 18.5002 5.83019 16.2102 4.10019 12.5002C4.74627 11.0739 5.66326 9.78676 6.80019 8.71019L8.57019 10.5002C8.15443 11.259 7.99592 12.1321 8.11844 12.9886C8.24096 13.8452 8.6379 14.6388 9.24971 15.2507C9.86152 15.8625 10.6552 16.2594 11.5117 16.3819C12.3682 16.5044 13.2414 16.3459 14.0002 15.9302L15.5902 17.5002C14.5013 18.1411 13.2636 18.4858 12.0002 18.5002Z" fill="inherit"/>
</svg>
