<svg width="24" height="25" viewBox="0 0 24 25" fill="none" xmlns="http://www.w3.org/2000/svg">
<path d="M21.9196 12.1C19.8996 7.41 16.0996 4.5 11.9996 4.5C7.89958 4.5 4.09958 7.41 2.07958 12.1C2.02452 12.2262 1.99609 12.3623 1.99609 12.5C1.99609 12.6377 2.02452 12.7738 2.07958 12.9C4.09958 17.59 7.89958 20.5 11.9996 20.5C16.0996 20.5 19.8996 17.59 21.9196 12.9C21.9746 12.7738 22.0031 12.6377 22.0031 12.5C22.0031 12.3623 21.9746 12.2262 21.9196 12.1ZM11.9996 18.5C8.82958 18.5 5.82958 16.21 4.09958 12.5C5.82958 8.79 8.82958 6.5 11.9996 6.5C15.1696 6.5 18.1696 8.79 19.8996 12.5C18.1696 16.21 15.1696 18.5 11.9996 18.5ZM11.9996 8.5C11.2085 8.5 10.4351 8.7346 9.7773 9.17412C9.1195 9.61365 8.60681 10.2384 8.30406 10.9693C8.00131 11.7002 7.9221 12.5044 8.07644 13.2804C8.23078 14.0563 8.61174 14.769 9.17115 15.3284C9.73056 15.8878 10.4433 16.2688 11.2192 16.4231C11.9951 16.5775 12.7994 16.4983 13.5303 16.1955C14.2612 15.8928 14.8859 15.3801 15.3255 14.7223C15.765 14.0645 15.9996 13.2911 15.9996 12.5C15.9996 11.4391 15.5782 10.4217 14.828 9.67157C14.0779 8.92143 13.0604 8.5 11.9996 8.5ZM11.9996 14.5C11.604 14.5 11.2173 14.3827 10.8884 14.1629C10.5595 13.9432 10.3032 13.6308 10.1518 13.2654C10.0004 12.8999 9.96084 12.4978 10.038 12.1098C10.1152 11.7219 10.3057 11.3655 10.5854 11.0858C10.8651 10.8061 11.2214 10.6156 11.6094 10.5384C11.9974 10.4613 12.3995 10.5009 12.7649 10.6522C13.1304 10.8036 13.4428 11.06 13.6625 11.3889C13.8823 11.7178 13.9996 12.1044 13.9996 12.5C13.9996 13.0304 13.7889 13.5391 13.4138 13.9142C13.0387 14.2893 12.53 14.5 11.9996 14.5Z" fill="inherit"/>
</svg>
