<svg width="24" height="24" viewBox="0 0 24 24" fill="none" xmlns="http://www.w3.org/2000/svg">
<path d="M11.25 10.8775C11.472 10.7292 11.733 10.65 12 10.65C12.358 10.65 12.7014 10.7922 12.9546 11.0454C13.2078 11.2986 13.35 11.642 13.35 12C13.35 12.267 13.2708 12.528 13.1225 12.75C12.9741 12.972 12.7633 13.1451 12.5166 13.2472C12.2699 13.3494 11.9985 13.3762 11.7366 13.3241C11.4748 13.272 11.2342 13.1434 11.0454 12.9546C10.8566 12.7658 10.728 12.5252 10.6759 12.2634C10.6239 12.0015 10.6506 11.7301 10.7528 11.4834C10.8549 11.2367 11.028 11.0259 11.25 10.8775ZM4.24998 10.8775C4.47199 10.7292 4.733 10.65 5 10.65C5.35804 10.65 5.70142 10.7922 5.9546 11.0454C6.20777 11.2986 6.35 11.642 6.35 12C6.35 12.267 6.27082 12.528 6.12248 12.75C5.97414 12.972 5.7633 13.1451 5.51662 13.2472C5.26994 13.3494 4.9985 13.3762 4.73663 13.3241C4.47476 13.272 4.23421 13.1434 4.04541 12.9546C3.85661 12.7658 3.72803 12.5252 3.67594 12.2634C3.62385 12.0015 3.65059 11.7301 3.75276 11.4834C3.85494 11.2367 4.02797 11.0259 4.24998 10.8775ZM18.25 10.8775C18.472 10.7292 18.733 10.65 19 10.65C19.358 10.65 19.7014 10.7922 19.9546 11.0454C20.2078 11.2986 20.35 11.642 20.35 12C20.35 12.267 20.2708 12.528 20.1225 12.75C19.9741 12.972 19.7633 13.1451 19.5166 13.2472C19.2699 13.3494 18.9985 13.3762 18.7366 13.3241C18.4748 13.272 18.2342 13.1434 18.0454 12.9546C17.8566 12.7658 17.728 12.5252 17.6759 12.2634C17.6239 12.0015 17.6506 11.7301 17.7528 11.4834C17.8549 11.2367 18.028 11.0259 18.25 10.8775Z" fill="inherit" stroke="inherit" stroke-width="1.3"/>
</svg>
