<svg width="16" height="17" viewBox="0 0 16 17" fill="none" xmlns="http://www.w3.org/2000/svg">
<mask id="path-1-inside-1_2187_146907" fill="white">
<path d="M13.2663 9.2521C13.1594 9.13045 13.1004 8.97404 13.1004 8.8121C13.1004 8.65017 13.1594 8.49376 13.2663 8.3721L14.1196 7.4121C14.2136 7.30722 14.272 7.17524 14.2864 7.03511C14.3008 6.89498 14.2704 6.7539 14.1996 6.6321L12.8663 4.32544C12.7962 4.20379 12.6895 4.10736 12.5614 4.0499C12.4333 3.99243 12.2904 3.97688 12.1529 4.00544L10.8996 4.25877C10.7401 4.29172 10.5741 4.26516 10.4329 4.1841C10.2916 4.10305 10.1849 3.97309 10.1329 3.81877L9.72627 2.59877C9.68155 2.46636 9.59634 2.35135 9.48269 2.27C9.36904 2.18865 9.2327 2.14508 9.09294 2.14544H6.42627C6.28089 2.13785 6.13703 2.17806 6.01665 2.25991C5.89627 2.34177 5.80599 2.46078 5.75961 2.59877L5.38627 3.81877C5.33427 3.97309 5.22759 4.10305 5.08635 4.1841C4.94511 4.26516 4.77908 4.29172 4.6196 4.25877L3.33294 4.00544C3.20264 3.98702 3.0698 4.00759 2.95117 4.06453C2.83254 4.12148 2.73341 4.21226 2.66627 4.32544L1.33294 6.6321C1.26038 6.75254 1.22775 6.89283 1.23973 7.03292C1.2517 7.17301 1.30766 7.30573 1.39961 7.4121L2.24627 8.3721C2.35315 8.49376 2.41209 8.65017 2.41209 8.8121C2.41209 8.97404 2.35315 9.13045 2.24627 9.2521L1.39961 10.2121C1.30766 10.3185 1.2517 10.4512 1.23973 10.5913C1.22775 10.7314 1.26038 10.8717 1.33294 10.9921L2.66627 13.2988C2.73634 13.4204 2.84302 13.5169 2.97111 13.5743C3.0992 13.6318 3.24215 13.6473 3.37961 13.6188L4.63294 13.3654C4.79242 13.3325 4.95844 13.359 5.09968 13.4401C5.24092 13.5212 5.34761 13.6511 5.39961 13.8054L5.80627 15.0254C5.85266 15.1634 5.94294 15.2824 6.06332 15.3643C6.1837 15.4462 6.32756 15.4864 6.47294 15.4788H9.1396C9.27937 15.4791 9.41571 15.4356 9.52936 15.3542C9.64301 15.2729 9.72821 15.1579 9.77294 15.0254L10.1796 13.8054C10.2316 13.6511 10.3383 13.5212 10.4795 13.4401C10.6208 13.359 10.7868 13.3325 10.9463 13.3654L12.1996 13.6188C12.3371 13.6473 12.48 13.6318 12.6081 13.5743C12.7362 13.5169 12.8429 13.4204 12.9129 13.2988L14.2463 10.9921C14.3171 10.8703 14.3474 10.7292 14.3331 10.5891C14.3187 10.449 14.2603 10.317 14.1663 10.2121L13.2663 9.2521ZM12.2729 10.1454L12.8063 10.7454L11.9529 12.2254L11.1663 12.0654C10.6861 11.9673 10.1867 12.0488 9.76267 12.2946C9.33868 12.5404 9.0197 12.9333 8.86627 13.3988L8.61294 14.1454H6.90627L6.66627 13.3854C6.51284 12.92 6.19386 12.5271 5.76987 12.2813C5.34589 12.0355 4.84642 11.954 4.36627 12.0521L3.57961 12.2121L2.71294 10.7388L3.24627 10.1388C3.57424 9.77209 3.75556 9.29739 3.75556 8.80544C3.75556 8.31348 3.57424 7.83879 3.24627 7.4721L2.71294 6.8721L3.56627 5.40544L4.35294 5.56544C4.83309 5.66359 5.33256 5.58202 5.75654 5.33624C6.18053 5.09045 6.49951 4.69754 6.65294 4.2321L6.90627 3.47877H8.61294L8.86627 4.23877C9.0197 4.70421 9.33868 5.09712 9.76267 5.3429C10.1867 5.58869 10.6861 5.67025 11.1663 5.5721L11.9529 5.4121L12.8063 6.8921L12.2729 7.4921C11.9486 7.85794 11.7696 8.32989 11.7696 8.81877C11.7696 9.30765 11.9486 9.7796 12.2729 10.1454V10.1454ZM7.75961 6.14544C7.23219 6.14544 6.71662 6.30184 6.27808 6.59485C5.83955 6.88787 5.49776 7.30435 5.29593 7.79161C5.09409 8.27888 5.04128 8.81506 5.14418 9.33234C5.24707 9.84963 5.50105 10.3248 5.87399 10.6977C6.24693 11.0707 6.72208 11.3246 7.23936 11.4275C7.75665 11.5304 8.29282 11.4776 8.78009 11.2758C9.26736 11.0739 9.68384 10.7322 9.97686 10.2936C10.2699 9.85509 10.4263 9.33952 10.4263 8.8121C10.4263 8.10486 10.1453 7.42658 9.64522 6.92649C9.14513 6.42639 8.46685 6.14544 7.75961 6.14544V6.14544ZM7.75961 10.1454C7.4959 10.1454 7.23811 10.0672 7.01884 9.92073C6.79958 9.77422 6.62868 9.56598 6.52777 9.32235C6.42685 9.07871 6.40044 8.81063 6.45189 8.55198C6.50334 8.29334 6.63033 8.05577 6.8168 7.8693C7.00327 7.68283 7.24084 7.55584 7.49948 7.50439C7.75813 7.45294 8.02621 7.47935 8.26985 7.58026C8.51348 7.68118 8.72172 7.85208 8.86823 8.07134C9.01474 8.29061 9.09294 8.5484 9.09294 8.8121C9.09294 9.16573 8.95246 9.50486 8.70241 9.75491C8.45237 10.005 8.11323 10.1454 7.75961 10.1454Z"/>
</mask>
<path d="M13.2663 9.2521C13.1594 9.13045 13.1004 8.97404 13.1004 8.8121C13.1004 8.65017 13.1594 8.49376 13.2663 8.3721L14.1196 7.4121C14.2136 7.30722 14.272 7.17524 14.2864 7.03511C14.3008 6.89498 14.2704 6.7539 14.1996 6.6321L12.8663 4.32544C12.7962 4.20379 12.6895 4.10736 12.5614 4.0499C12.4333 3.99243 12.2904 3.97688 12.1529 4.00544L10.8996 4.25877C10.7401 4.29172 10.5741 4.26516 10.4329 4.1841C10.2916 4.10305 10.1849 3.97309 10.1329 3.81877L9.72627 2.59877C9.68155 2.46636 9.59634 2.35135 9.48269 2.27C9.36904 2.18865 9.2327 2.14508 9.09294 2.14544H6.42627C6.28089 2.13785 6.13703 2.17806 6.01665 2.25991C5.89627 2.34177 5.80599 2.46078 5.75961 2.59877L5.38627 3.81877C5.33427 3.97309 5.22759 4.10305 5.08635 4.1841C4.94511 4.26516 4.77908 4.29172 4.6196 4.25877L3.33294 4.00544C3.20264 3.98702 3.0698 4.00759 2.95117 4.06453C2.83254 4.12148 2.73341 4.21226 2.66627 4.32544L1.33294 6.6321C1.26038 6.75254 1.22775 6.89283 1.23973 7.03292C1.2517 7.17301 1.30766 7.30573 1.39961 7.4121L2.24627 8.3721C2.35315 8.49376 2.41209 8.65017 2.41209 8.8121C2.41209 8.97404 2.35315 9.13045 2.24627 9.2521L1.39961 10.2121C1.30766 10.3185 1.2517 10.4512 1.23973 10.5913C1.22775 10.7314 1.26038 10.8717 1.33294 10.9921L2.66627 13.2988C2.73634 13.4204 2.84302 13.5169 2.97111 13.5743C3.0992 13.6318 3.24215 13.6473 3.37961 13.6188L4.63294 13.3654C4.79242 13.3325 4.95844 13.359 5.09968 13.4401C5.24092 13.5212 5.34761 13.6511 5.39961 13.8054L5.80627 15.0254C5.85266 15.1634 5.94294 15.2824 6.06332 15.3643C6.1837 15.4462 6.32756 15.4864 6.47294 15.4788H9.1396C9.27937 15.4791 9.41571 15.4356 9.52936 15.3542C9.64301 15.2729 9.72821 15.1579 9.77294 15.0254L10.1796 13.8054C10.2316 13.6511 10.3383 13.5212 10.4795 13.4401C10.6208 13.359 10.7868 13.3325 10.9463 13.3654L12.1996 13.6188C12.3371 13.6473 12.48 13.6318 12.6081 13.5743C12.7362 13.5169 12.8429 13.4204 12.9129 13.2988L14.2463 10.9921C14.3171 10.8703 14.3474 10.7292 14.3331 10.5891C14.3187 10.449 14.2603 10.317 14.1663 10.2121L13.2663 9.2521ZM12.2729 10.1454L12.8063 10.7454L11.9529 12.2254L11.1663 12.0654C10.6861 11.9673 10.1867 12.0488 9.76267 12.2946C9.33868 12.5404 9.0197 12.9333 8.86627 13.3988L8.61294 14.1454H6.90627L6.66627 13.3854C6.51284 12.92 6.19386 12.5271 5.76987 12.2813C5.34589 12.0355 4.84642 11.954 4.36627 12.0521L3.57961 12.2121L2.71294 10.7388L3.24627 10.1388C3.57424 9.77209 3.75556 9.29739 3.75556 8.80544C3.75556 8.31348 3.57424 7.83879 3.24627 7.4721L2.71294 6.8721L3.56627 5.40544L4.35294 5.56544C4.83309 5.66359 5.33256 5.58202 5.75654 5.33624C6.18053 5.09045 6.49951 4.69754 6.65294 4.2321L6.90627 3.47877H8.61294L8.86627 4.23877C9.0197 4.70421 9.33868 5.09712 9.76267 5.3429C10.1867 5.58869 10.6861 5.67025 11.1663 5.5721L11.9529 5.4121L12.8063 6.8921L12.2729 7.4921C11.9486 7.85794 11.7696 8.32989 11.7696 8.81877C11.7696 9.30765 11.9486 9.7796 12.2729 10.1454V10.1454ZM7.75961 6.14544C7.23219 6.14544 6.71662 6.30184 6.27808 6.59485C5.83955 6.88787 5.49776 7.30435 5.29593 7.79161C5.09409 8.27888 5.04128 8.81506 5.14418 9.33234C5.24707 9.84963 5.50105 10.3248 5.87399 10.6977C6.24693 11.0707 6.72208 11.3246 7.23936 11.4275C7.75665 11.5304 8.29282 11.4776 8.78009 11.2758C9.26736 11.0739 9.68384 10.7322 9.97686 10.2936C10.2699 9.85509 10.4263 9.33952 10.4263 8.8121C10.4263 8.10486 10.1453 7.42658 9.64522 6.92649C9.14513 6.42639 8.46685 6.14544 7.75961 6.14544V6.14544ZM7.75961 10.1454C7.4959 10.1454 7.23811 10.0672 7.01884 9.92073C6.79958 9.77422 6.62868 9.56598 6.52777 9.32235C6.42685 9.07871 6.40044 8.81063 6.45189 8.55198C6.50334 8.29334 6.63033 8.05577 6.8168 7.8693C7.00327 7.68283 7.24084 7.55584 7.49948 7.50439C7.75813 7.45294 8.02621 7.47935 8.26985 7.58026C8.51348 7.68118 8.72172 7.85208 8.86823 8.07134C9.01474 8.29061 9.09294 8.5484 9.09294 8.8121C9.09294 9.16573 8.95246 9.50486 8.70241 9.75491C8.45237 10.005 8.11323 10.1454 7.75961 10.1454Z" stroke="#535C5F" stroke-width="2.6" mask="url(#path-1-inside-1_2187_146907)"/>
</svg>
